<svg xmlns="http://www.w3.org/2000/svg" width="5755" height="2064" fill="none" viewBox="0 0 5755 2064"><path fill="url(#paint0_radial_17984_134610)" d="M895.514 689.635C959.429 625.72 991.386 593.763 1028.24 581.79C1060.65 571.258 1095.57 571.258 1127.98 581.79C1164.83 593.763 1196.79 625.721 1260.71 689.635L1420.48 849.406C1484.39 913.321 1516.35 945.278 1528.32 982.129C1538.85 1014.54 1538.85 1049.46 1528.32 1081.88C1516.35 1118.73 1484.39 1150.68 1420.48 1214.6L1260.71 1374.37C1196.79 1438.28 1164.83 1470.24 1127.98 1482.21C1095.57 1492.75 1060.65 1492.75 1028.24 1482.21C991.386 1470.24 959.429 1438.28 895.514 1374.37L865.475 1340.69C847.298 1320.31 838.209 1310.12 831.729 1298.53C825.981 1288.26 821.765 1277.19 819.212 1265.7C816.334 1252.74 816.334 1239.08 816.334 1211.77L816.333 852.23C816.333 824.922 816.333 811.268 819.212 798.306C821.764 786.81 825.981 775.747 831.729 765.469C838.209 753.88 847.298 743.691 865.475 723.312L895.514 689.635Z"/><path fill="url(#paint1_linear_17984_134610)" d="M895.514 689.635C959.429 625.72 991.386 593.763 1028.24 581.79C1060.65 571.258 1095.57 571.258 1127.98 581.79C1164.83 593.763 1196.79 625.721 1260.71 689.635L1420.48 849.406C1484.39 913.321 1516.35 945.278 1528.32 982.129C1538.85 1014.54 1538.85 1049.46 1528.32 1081.88C1516.35 1118.73 1484.39 1150.68 1420.48 1214.6L1260.71 1374.37C1196.79 1438.28 1164.83 1470.24 1127.98 1482.21C1095.57 1492.75 1060.65 1492.75 1028.24 1482.21C991.386 1470.24 959.429 1438.28 895.514 1374.37L865.475 1340.69C847.298 1320.31 838.209 1310.12 831.729 1298.53C825.981 1288.26 821.765 1277.19 819.212 1265.7C816.334 1252.74 816.334 1239.08 816.334 1211.77L816.333 852.23C816.333 824.922 816.333 811.268 819.212 798.306C821.764 786.81 825.981 775.747 831.729 765.469C838.209 753.88 847.298 743.691 865.475 723.312L895.514 689.635Z"/><path fill="url(#paint2_radial_17984_134610)" d="M884.103 701.036C916.061 669.079 932.039 653.1 950.464 647.114C966.672 641.848 984.13 641.848 1000.34 647.114C1018.76 653.1 1034.74 669.079 1066.7 701.036L1306.36 940.693C1338.31 972.65 1354.29 988.629 1360.28 1007.05C1365.54 1023.26 1365.54 1040.72 1360.28 1056.93C1354.29 1075.35 1338.31 1091.33 1306.36 1123.29L1066.7 1362.95C1034.74 1394.9 1018.76 1410.88 1000.34 1416.87C984.13 1422.13 966.672 1422.13 950.464 1416.87C932.039 1410.88 916.061 1394.9 884.103 1362.95L735.744 1214.59C671.83 1150.67 639.873 1118.71 627.899 1081.86C617.367 1049.45 617.367 1014.53 627.899 982.117C639.873 945.267 671.83 913.31 735.744 849.395L884.103 701.036Z"/><path fill="#1B1340" d="M1863.44 1138.6V1258.52H1947.18V1143.83C1947.18 1132.7 1951.56 1121.95 1959.46 1114.09C1967.28 1106.23 1977.98 1101.74 1989.05 1101.74H2074.93C2114.94 1101.74 2153.36 1085.74 2181.65 1057.21C2209.93 1028.77 2225.84 990.138 2225.84 949.912C2225.84 909.687 2209.93 871.052 2181.65 842.521C2153.36 814.082 2114.94 798.086 2074.84 798.086H1863.44V947.948H1947.18V877.32H2069.25C2088.23 877.32 2106.38 884.897 2119.78 898.368C2133.17 911.839 2140.71 930.081 2140.71 949.164C2140.71 968.248 2133.17 986.489 2119.78 999.96C2106.38 1013.43 2088.23 1021.01 2069.25 1021.01H1980.58C1965.23 1021.01 1949.97 1024 1935.83 1029.99C1921.6 1035.88 1908.76 1044.58 1897.87 1055.53C1886.98 1066.47 1878.42 1079.47 1872.47 1093.69C1866.51 1107.82 1863.44 1123.16 1863.44 1138.6Z"/><path fill="#1B1340" d="M2238.78 1258.52V1075.83C2238.78 1001.27 2282.04 941.961 2368.67 941.961C2382.53 941.774 2396.39 943.27 2409.98 946.545V1021.66C2400.11 1021.01 2391.65 1021.01 2387.65 1021.01C2341.78 1021.01 2322.05 1042.15 2322.05 1084.99V1258.52H2238.78Z"/><path fill="#1B1340" d="M2434.91 1103.61C2434.91 1011.94 2503.76 942.056 2599.59 942.056C2695.43 942.056 2764.28 1011.94 2764.28 1103.61C2764.28 1195.29 2695.43 1265.82 2599.59 1265.82C2503.76 1265.82 2434.91 1195.19 2434.91 1103.61ZM2682.21 1103.61C2682.21 1051.51 2647.42 1014.55 2599.59 1014.55C2551.68 1014.55 2516.97 1051.41 2516.97 1103.61C2516.97 1156.37 2551.77 1192.67 2599.59 1192.67C2647.51 1192.67 2682.21 1156.28 2682.21 1103.61Z"/><path fill="#1B1340" d="M3030.57 1103.61C3030.57 1011.94 3099.42 942.056 3195.25 942.056C3290.99 942.056 3359.84 1011.94 3359.84 1103.61C3359.84 1195.29 3290.99 1265.82 3195.25 1265.82C3099.42 1265.82 3030.57 1195.19 3030.57 1103.61ZM3277.78 1103.61C3277.78 1051.51 3242.98 1014.55 3195.16 1014.55C3147.34 1014.55 3112.54 1051.41 3112.54 1103.61C3112.54 1156.37 3147.34 1192.67 3195.16 1192.67C3242.98 1192.67 3277.78 1156.28 3277.78 1103.61Z"/><path fill="#1B1340" d="M3403.11 1258.52V1082.47C3403.11 1000.71 3454.94 941.962 3547.42 941.962C3639.25 941.962 3691.08 1000.62 3691.08 1082.47V1258.52H3608.46V1089.02C3608.46 1043.55 3588.08 1015.12 3547.42 1015.12C3506.76 1015.12 3486.38 1043.46 3486.38 1089.02V1258.52H3403.11Z"/><path fill="#1B1340" d="M3005.63 1015.2H2915.75V1130.64C2915.75 1170.87 2930.17 1189.3 2971.49 1189.3C2975.39 1189.3 2985.26 1189.3 2997.72 1188.64V1256.56C2980.7 1261.14 2965.62 1263.85 2949.16 1263.85C2879.65 1263.85 2832.39 1221.66 2832.39 1141.87V1015.2H2776.56V948.599H2790.52C2796.01 948.599 2801.5 947.477 2806.52 945.419C2811.64 943.267 2816.2 940.18 2820.11 936.251C2824.01 932.322 2827.08 927.738 2829.22 922.593C2831.36 917.448 2832.39 912.023 2832.39 906.503V843.733H2915.66V948.599H3005.54V1015.2H3005.63Z"/><path fill="#6D4AFF" d="M4383.71 955.104C4290.12 955.104 4220.75 1023.82 4220.75 1115.44C4220.75 1212.3 4287.51 1276.44 4368 1276.44C4412.51 1276.44 4447.85 1256.8 4467.48 1223.43L4472.71 1269.24H4546.01V1116.1C4546.01 1016.62 4476.64 955.104 4383.71 955.104ZM4383.71 1203.79C4337.24 1203.79 4302.56 1167.8 4302.56 1115.44C4302.56 1063.09 4337.9 1027.09 4383.71 1027.09C4428.87 1027.09 4464.21 1061.78 4464.21 1115.44C4464.21 1175.65 4423.63 1203.79 4383.71 1203.79Z"/><path fill="#6D4AFF" d="M4706.59 1276.44C4769.41 1276.44 4823.08 1240.44 4823.08 1185.47C4823.08 1067.67 4664.05 1095.15 4664.05 1047.38C4664.05 1031.67 4677.79 1019.89 4699.39 1019.89C4721.64 1019.89 4736.04 1032.33 4739.31 1050.65H4817.19C4812.61 990.444 4766.8 954.449 4699.39 955.104C4630.02 955.104 4587.48 996.334 4587.48 1047.38C4587.48 1166.49 4744.54 1135.73 4744.54 1185.47C4744.54 1200.52 4730.15 1211.65 4706.59 1211.65C4683.68 1211.65 4662.74 1200.52 4658.81 1176.96H4579.62C4584.21 1235.21 4635.25 1276.44 4706.59 1276.44Z"/><path fill="#6D4AFF" d="M4981.73 1276.44C5044.56 1276.44 5098.23 1240.44 5098.23 1185.47C5098.23 1067.67 4939.2 1095.15 4939.2 1047.38C4939.2 1031.67 4952.94 1019.89 4974.54 1019.89C4996.79 1019.89 5011.18 1032.33 5014.46 1050.65H5092.34C5087.75 990.444 5041.94 954.449 4974.54 955.104C4905.16 955.104 4862.63 996.334 4862.63 1047.38C4862.63 1166.49 5019.69 1135.73 5019.69 1185.47C5019.69 1200.52 5005.29 1211.65 4981.73 1211.65C4958.83 1211.65 4937.89 1200.52 4933.96 1176.96H4854.77C4859.35 1235.21 4910.4 1276.44 4981.73 1276.44Z"/><path fill="#6D4AFF" d="M4071.28 802.945H3856.23V1269.25H3941.42V1153.17C3941.42 1141.9 3945.87 1131 3953.91 1123.04C3961.86 1115.08 3972.75 1110.53 3984.01 1110.53H4071.28C4111.98 1110.53 4150.98 1094.33 4179.66 1065.62C4208.43 1036.81 4224.53 997.769 4224.53 957.117C4224.62 936.934 4220.74 916.845 4213.07 898.178C4205.41 879.51 4194.14 862.454 4179.85 848.145C4165.56 833.837 4148.71 822.466 4130.06 814.695C4111.51 806.925 4091.54 802.945 4071.28 802.945ZM4138.39 955.885C4138.39 965.456 4136.5 974.932 4132.81 983.744C4129.11 992.557 4123.81 1000.61 4117 1007.34C4110.28 1014.07 4102.23 1019.47 4093.43 1023.07C4084.63 1026.76 4075.16 1028.57 4065.6 1028.57H3941.04V883.301H4065.6C4075.16 883.301 4084.63 885.196 4093.53 888.891C4102.33 892.587 4110.37 897.988 4117.09 904.716C4123.81 911.539 4129.21 919.593 4132.81 928.406C4136.4 937.313 4138.3 946.789 4138.2 956.359L4138.39 955.885Z"/><defs><radialGradient id="paint0_radial_17984_134610" cx="0" cy="0" r="1" gradientTransform="translate(896.514 1507.97) rotate(-58.142) scale(764.821 1196.02)" gradientUnits="userSpaceOnUse"><stop stop-color="#FFD580"/><stop offset=".094" stop-color="#F6C592"/><stop offset=".205" stop-color="#EBB6A2"/><stop offset=".324" stop-color="#DFA5AF"/><stop offset=".429" stop-color="#D397BE"/><stop offset=".534" stop-color="#C486CB"/><stop offset=".649" stop-color="#B578D9"/><stop offset=".771" stop-color="#A166E5"/><stop offset=".891" stop-color="#8B57F2"/><stop offset="1" stop-color="#704CFF"/></radialGradient><linearGradient id="paint1_linear_17984_134610" x1="864.958" x2="1043.14" y1="391.965" y2="1479.59" gradientUnits="userSpaceOnUse"><stop stop-color="#6D4AFF"/><stop offset=".392" stop-color="#B39FFB" stop-opacity=".978"/><stop offset="1" stop-color="#FFE8DB" stop-opacity=".8"/></linearGradient><radialGradient id="paint2_radial_17984_134610" cx="0" cy="0" r="1" gradientTransform="translate(829.333 1414.83) rotate(-58.142) scale(615.182 962.019)" gradientUnits="userSpaceOnUse"><stop stop-color="#FFD580"/><stop offset=".094" stop-color="#F6C592"/><stop offset=".205" stop-color="#EBB6A2"/><stop offset=".324" stop-color="#DFA5AF"/><stop offset=".429" stop-color="#D397BE"/><stop offset=".534" stop-color="#C486CB"/><stop offset=".649" stop-color="#B578D9"/><stop offset=".771" stop-color="#A166E5"/><stop offset=".891" stop-color="#8B57F2"/><stop offset="1" stop-color="#704CFF"/></radialGradient></defs></svg>